<?xml version="1.0" encoding="UTF-8"?>
<svg version="1.1" xmlns="http://www.w3.org/2000/svg" width="192" height="192">
<path d="M0 0 C2.18341574 0.00851187 4.36420341 -0.02037972 6.54736328 -0.05200195 C26.18907418 -0.14916493 47.20012874 6.5397496 62.31689453 19.44604492 C62.31689453 20.10604492 62.31689453 20.76604492 62.31689453 21.44604492 C62.87376953 21.69354492 63.43064453 21.94104492 64.00439453 22.19604492 C69.42644607 25.12688359 73.74113862 29.45718959 77.31689453 34.44604492 C77.31689453 35.10604492 77.31689453 35.76604492 77.31689453 36.44604492 C78.30689453 36.77604492 79.29689453 37.10604492 80.31689453 37.44604492 C93.58704777 53.0951612 98.88137955 74.11053967 98.76293945 94.12915039 C98.75442759 96.31256613 98.78331917 98.4933538 98.81494141 100.67651367 C98.91210439 120.31822458 92.22318985 141.32927913 79.31689453 156.44604492 C78.65689453 156.44604492 77.99689453 156.44604492 77.31689453 156.44604492 C77.06939453 157.00291992 76.82189453 157.55979492 76.56689453 158.13354492 C73.63605586 163.55559646 69.30574986 167.87028901 64.31689453 171.44604492 C63.65689453 171.44604492 62.99689453 171.44604492 62.31689453 171.44604492 C61.98689453 172.43604492 61.65689453 173.42604492 61.31689453 174.44604492 C45.66777825 187.71619816 24.65239978 193.01052994 4.63378906 192.89208984 C2.45037333 192.88357798 0.26958565 192.91246956 -1.91357422 192.9440918 C-21.55528512 193.04125478 -42.56633968 186.35234024 -57.68310547 173.44604492 C-57.68310547 172.78604492 -57.68310547 172.12604492 -57.68310547 171.44604492 C-58.23998047 171.19854492 -58.79685547 170.95104492 -59.37060547 170.69604492 C-64.79265701 167.76520625 -69.10734955 163.43490025 -72.68310547 158.44604492 C-72.68310547 157.78604492 -72.68310547 157.12604492 -72.68310547 156.44604492 C-73.67310547 156.11604492 -74.66310547 155.78604492 -75.68310547 155.44604492 C-88.9532587 139.79692864 -94.24759049 118.78155017 -94.12915039 98.76293945 C-94.12063852 96.57952372 -94.14953011 94.39873604 -94.18115234 92.21557617 C-94.27831533 72.57386527 -87.58940079 51.56281071 -74.68310547 36.44604492 C-74.02310547 36.44604492 -73.36310547 36.44604492 -72.68310547 36.44604492 C-72.43560547 35.88916992 -72.18810547 35.33229492 -71.93310547 34.75854492 C-69.0022668 29.33649338 -64.6719608 25.02180084 -59.68310547 21.44604492 C-59.02310547 21.44604492 -58.36310547 21.44604492 -57.68310547 21.44604492 C-57.18810547 19.96104492 -57.18810547 19.96104492 -56.68310547 18.44604492 C-41.03398919 5.17589169 -20.01861072 -0.11844009 0 0 Z " fill="#AA0000" transform="translate(93.68310546875,-0.446044921875)"/>
<path d="M0 0 C9.6275941 7.76590463 11.13086979 17.60607043 12.58421326 29.34039307 C12.93337992 32.73750812 13.00348294 36.1352153 13.0546875 39.546875 C13.08593408 41.06999545 13.11760611 42.59310722 13.1496582 44.11621094 C13.16501617 44.89863159 13.18037415 45.68105225 13.19619751 46.48718262 C12.76357021 70.83264801 12.76357021 70.83264801 19.80859375 93.5234375 C24.83114006 93.8188814 27.70401761 93.50858378 31.80859375 90.5234375 C32.44020668 98.10279267 31.1546435 103.28448121 26.41796875 109.28515625 C21.94757487 114.14376855 17.52722404 115.5590913 10.99609375 116.0234375 C5.01453652 115.86153069 1.07430131 113.63417671 -3.19140625 109.5234375 C-8.64068901 102.52221769 -11.34446533 95.41617012 -11.19140625 86.5234375 C-11.86042969 86.53503906 -12.52945313 86.54664062 -13.21875 86.55859375 C-22.24325094 86.64338772 -31.19210171 86.12054775 -40.19140625 85.5234375 C-41.50317127 91.16530064 -42.27947347 96.54029098 -42.50390625 102.3359375 C-42.79144177 106.54982008 -42.94297966 108.16144446 -45.37890625 111.7109375 C-51.69002241 115.77810125 -57.81799706 116.2652744 -65.19140625 115.5234375 C-68.9317081 113.92045099 -69.9229909 112.92606052 -72.19140625 109.5234375 C-74.35751167 89.46586397 -62.78508969 72.5549141 -52.39648438 56.39892578 C-40.14732345 39.05958463 -40.14732345 39.05958463 -35.06640625 19.2109375 C-35.08445313 18.32792969 -35.1025 17.44492187 -35.12109375 16.53515625 C-35.14429688 15.87128906 -35.1675 15.20742188 -35.19140625 14.5234375 C-37.58263575 14.3120922 -37.58263575 14.3120922 -40.19140625 15.5234375 C-41.88441052 18.39018594 -43.06104248 21.39757121 -44.19140625 24.5234375 C-44.85140625 24.5234375 -45.51140625 24.5234375 -46.19140625 24.5234375 C-46.77451033 16.35998042 -44.48131023 11.24139889 -39.50390625 4.8359375 C-29.69739919 -6.0684991 -12.16896183 -8.19940743 0 0 Z " fill="#FDFBFB" transform="translate(116.19140625,40.4765625)"/>
<path d="M0 0 C5.50295083 5.50295083 5.25818821 16.85610674 5.29296875 24.3671875 C5.28417299 27.20383995 5.2387791 30.03884657 5.1875 32.875 C5.17240001 34.35285068 5.15872116 35.83071659 5.14648438 37.30859375 C5.11395892 40.8727208 5.06248246 44.43625696 5 48 C3.35451172 48.09087891 3.35451172 48.09087891 1.67578125 48.18359375 C0.22134346 48.26804498 -1.23308305 48.35269066 -2.6875 48.4375 C-3.40873047 48.47681641 -4.12996094 48.51613281 -4.87304688 48.55664062 C-8.66707282 48.78185678 -12.28651492 49.12839305 -16 50 C-15.32078008 45.01572438 -13.25941377 40.74647776 -11.25 36.1875 C-6.21153951 24.4826125 -2.03386274 12.62816269 0 0 Z " fill="#AD0909" transform="translate(98,61)"/>
</svg>
